<?xml version="1.0" standalone="no"?>
<!DOCTYPE svg PUBLIC "-//W3C//DTD SVG 20010904//EN"
 "http://www.w3.org/TR/2001/REC-SVG-20010904/DTD/svg10.dtd">
<svg version="1.0" xmlns="http://www.w3.org/2000/svg"
 width="400.000000pt" height="400.000000pt" viewBox="0 0 400.000000 400.000000"
 preserveAspectRatio="xMidYMid meet">
<metadata>
Created by potrace 1.14, written by Peter Selinger 2001-2017
</metadata>
<g transform="translate(0.000000,400.000000) scale(0.100000,-0.100000)"
fill="#000000" stroke="none">
<path d="M2035 3759 c-62 -20 -182 -41 -225 -39 -34 1 -181 -41 -201 -57 -8
-7 -18 -13 -22 -13 -13 0 -162 -96 -194 -125 -32 -29 -93 -136 -93 -163 0 -17
-20 -50 -57 -96 -18 -22 -33 -46 -33 -53 0 -7 -3 -13 -7 -13 -5 0 -16 -21 -26
-48 -11 -26 -23 -56 -27 -67 -11 -26 -22 -99 -24 -152 0 -24 -4 -43 -8 -43 -5
0 -8 -30 -7 -67 1 -80 7 -66 38 94 11 57 31 124 44 150 48 98 90 169 118 198
16 17 29 38 29 47 0 16 44 33 60 23 14 -9 203 -20 296 -18 45 1 105 8 134 17
30 9 68 16 86 16 34 0 203 39 287 67 39 12 53 13 77 3 17 -7 46 -10 64 -7 25
4 36 1 40 -9 3 -8 12 -14 21 -14 8 0 15 -4 15 -10 0 -14 -33 -13 -48 2 -9 9
-12 9 -12 0 0 -7 5 -12 11 -12 5 0 8 -4 5 -9 -6 -10 26 -21 62 -21 12 0 31 -5
42 -12 18 -11 18 -14 3 -30 -15 -17 -14 -18 13 -19 29 -1 29 -1 4 -9 -16 -5
-19 -8 -8 -9 11 -1 15 -6 12 -16 -4 -8 -1 -15 5 -15 6 0 8 -7 5 -15 -4 -10 0
-15 11 -15 9 0 14 -4 11 -9 -3 -5 1 -12 10 -15 8 -3 12 -10 9 -16 -3 -5 2 -10
12 -11 12 0 14 -2 4 -6 -11 -5 -11 -7 0 -14 12 -7 12 -9 0 -9 -8 0 -4 -8 10
-20 13 -10 18 -19 12 -20 -23 0 -14 -30 10 -31 21 0 21 -1 2 -8 -19 -8 -19 -8
2 -19 23 -12 55 -67 45 -76 -3 -4 -14 1 -24 11 -10 9 -21 14 -24 11 -3 -3 27
-28 66 -54 92 -63 90 -62 125 -76 28 -11 29 -12 7 -16 -13 -2 -34 4 -48 13
-22 14 -29 14 -55 3 -30 -14 -40 -38 -14 -38 8 0 15 4 15 8 0 5 7 9 15 9 8 0
12 -4 9 -8 -2 -4 0 -10 5 -13 5 -3 8 -20 7 -38 -2 -31 13 -58 31 -58 5 0 9
-32 9 -71 1 -38 6 -75 13 -82 6 -6 11 -21 11 -33 0 -12 8 -28 17 -35 15 -12
16 -12 10 4 -7 19 0 22 23 7 12 -7 13 -13 3 -28 -9 -15 -9 -22 0 -31 22 -22
39 -12 36 22 -2 18 1 39 6 46 6 11 4 13 -8 8 -10 -3 -17 -2 -17 3 0 6 9 10 20
10 11 0 23 7 26 15 4 8 14 15 23 15 9 0 22 9 29 20 20 32 48 24 44 -11 -1 -4
8 -5 18 -2 11 3 20 9 20 13 0 4 23 19 51 34 49 25 69 26 69 5 0 -14 39 -54 45
-47 12 12 25 129 25 228 0 78 -5 124 -21 175 -11 39 -25 97 -29 130 -9 64 -31
132 -54 168 -8 12 -20 41 -27 65 -13 46 -120 172 -145 172 -7 0 -11 6 -8 13 3
8 -10 19 -33 28 -21 7 -53 22 -72 32 -20 9 -39 17 -45 17 -5 0 -24 18 -43 39
-37 44 -104 85 -154 95 -55 10 -71 14 -133 36 -85 29 -352 29 -441 -1z m449
-114 c-4 -8 -8 -15 -10 -15 -2 0 -4 7 -4 15 0 8 4 15 10 15 5 0 7 -7 4 -15z
m-44 -6 c0 -7 -9 -27 -21 -45 -11 -19 -18 -38 -15 -43 9 -14 -47 -77 -65 -73
-9 1 -22 -4 -29 -13 -7 -8 -20 -15 -29 -15 -13 0 -13 2 -2 9 7 5 10 14 7 20
-4 6 -4 10 1 9 12 -4 46 33 60 65 7 15 17 27 23 27 5 0 10 7 10 15 0 8 5 15
11 15 5 0 7 -6 3 -12 -4 -8 -3 -10 2 -5 5 5 9 12 10 15 4 31 34 58 34 31z
m-250 -12 c0 -8 -9 -24 -20 -37 -25 -28 -27 -8 -2 25 20 28 22 29 22 12z m44
-12 c-4 -8 -11 -15 -16 -15 -6 0 -5 6 2 15 7 8 14 15 16 15 2 0 1 -7 -2 -15z
m211 -34 c-15 -30 -35 -42 -35 -21 0 6 4 10 8 10 5 0 15 11 22 25 7 14 15 23
17 21 3 -2 -3 -18 -12 -35z m-205 -21 c-7 -17 -16 -27 -21 -24 -4 2 -1 21 9
40 19 41 30 27 12 -16z m346 38 c4 -6 3 -8 -3 -5 -6 4 -16 0 -23 -8 -14 -17
-30 -20 -30 -5 0 6 7 10 15 10 8 0 15 5 15 10 0 14 17 13 26 -2z m-376 -18 c0
-5 -5 -10 -11 -10 -5 0 -7 5 -4 10 3 6 8 10 11 10 2 0 4 -4 4 -10z m310 -37
c-14 -10 -35 -29 -48 -43 -18 -19 -22 -20 -18 -7 3 10 6 24 6 29 0 6 3 9 6 5
3 -3 15 3 27 14 11 10 28 19 36 19 10 0 7 -6 -9 -17z m110 -3 c0 -11 -38 -48
-65 -62 -19 -11 -19 -10 -5 8 26 33 38 44 49 44 6 0 11 5 11 10 0 6 2 10 5 10
3 0 5 -4 5 -10z m-150 -75 c-7 -8 -17 -15 -22 -15 -11 0 14 29 26 30 5 0 3 -7
-4 -15z m46 -20 c-11 -8 -27 -15 -35 -15 -13 0 -13 -2 -3 -9 11 -7 11 -9 -2
-14 -26 -10 -19 27 7 39 34 18 56 17 33 -1z m-76 -45 c0 -5 -5 -10 -11 -10 -5
0 -7 5 -4 10 3 6 8 10 11 10 2 0 4 -4 4 -10z m250 2 c0 -4 -40 -14 -90 -23
-72 -12 -90 -12 -90 -2 0 9 15 13 43 13 23 0 49 5 57 10 18 12 80 13 80 2z
m-227 -49 c-7 -2 -21 -2 -30 0 -10 3 -4 5 12 5 17 0 24 -2 18 -5z m527 -3 c0
-5 10 -11 23 -11 20 -1 20 -2 2 -6 -11 -3 -26 -10 -33 -16 -7 -5 -15 -7 -19
-3 -3 3 -1 6 5 6 7 0 12 5 12 10 0 6 -8 10 -17 10 -15 0 -16 2 -3 10 19 13 30
13 30 0z m-347 -7 c-7 -2 -19 -2 -25 0 -7 3 -2 5 12 5 14 0 19 -2 13 -5z m67
-33 c15 -5 -19 -7 -84 -5 -59 2 -111 6 -114 9 -8 9 170 5 198 -4z m150 0 c12
-8 9 -10 -13 -10 -16 0 -26 4 -22 10 8 12 16 12 35 0z m-72 -7 c-10 -2 -26 -2
-35 0 -10 3 -2 5 17 5 19 0 27 -2 18 -5z m77 -143 c3 -5 20 -10 38 -10 21 0
28 -3 21 -10 -7 -7 -30 -6 -70 1 -73 13 -87 24 -35 27 22 2 42 -2 46 -8z m165
-150 c0 -5 -2 -10 -4 -10 -3 0 -8 5 -11 10 -3 6 -1 10 4 10 6 0 11 -4 11 -10z
m-280 -20 c0 -10 -38 -1 -45 10 -2 4 7 5 20 2 14 -2 25 -8 25 -12z m-35 -25
c18 -7 19 -8 2 -12 -10 -3 -30 3 -44 12 -20 14 -23 19 -12 26 9 5 18 4 24 -4
6 -7 19 -17 30 -22z m6 -34 c-8 -5 -10 -14 -5 -22 6 -11 4 -11 -10 0 -13 11
-14 16 -4 22 7 5 18 9 23 9 6 0 4 -4 -4 -9z m74 -41 c3 -5 -1 -10 -9 -10 -8 0
-18 5 -21 10 -3 6 1 10 9 10 8 0 18 -4 21 -10z"/>
<path d="M2458 3313 c7 -3 16 -2 19 1 4 3 -2 6 -13 5 -11 0 -14 -3 -6 -6z"/>
<path d="M1650 3186 c0 -2 7 -6 15 -10 8 -3 15 -1 15 4 0 6 -7 10 -15 10 -8 0
-15 -2 -15 -4z"/>
<path d="M2510 3109 c0 -11 5 -17 10 -14 6 3 10 13 10 21 0 8 -4 14 -10 14 -5
0 -10 -9 -10 -21z"/>
<path d="M1681 3104 c-19 -8 -39 -14 -45 -13 -29 4 -46 -2 -46 -16 0 -8 -4
-15 -10 -15 -5 0 -10 4 -10 9 0 13 -59 7 -65 -6 -3 -9 10 -13 43 -14 26 -1 53
-1 60 0 6 1 12 -3 12 -9 0 -5 -7 -10 -16 -10 -28 0 -9 -25 22 -28 16 -2 33 -8
38 -12 14 -14 -13 -40 -40 -40 -13 0 -24 -4 -24 -10 0 -11 36 -12 63 -2 24 10
47 57 47 98 0 23 6 38 19 46 15 9 17 15 9 25 -13 16 -15 16 -57 -3z m-21 -64
c0 -5 -7 -10 -15 -10 -8 0 -15 5 -15 10 0 6 7 10 15 10 8 0 15 -4 15 -10z"/>
<path d="M1846 3055 c-8 -8 -19 -15 -25 -15 -20 0 -60 -23 -55 -31 7 -12 74
-11 74 1 0 6 8 10 18 10 9 0 25 7 34 14 16 12 16 14 -7 24 -19 9 -27 8 -39 -3z"/>
<path d="M2538 3028 c5 -5 16 -8 23 -6 8 3 3 7 -10 11 -17 4 -21 3 -13 -5z"/>
<path d="M1550 3006 c0 -8 5 -18 10 -21 6 -3 10 3 10 14 0 12 -4 21 -10 21 -5
0 -10 -6 -10 -14z"/>
<path d="M2551 2953 c-1 -6 3 -14 7 -17 12 -7 38 12 29 21 -5 4 -12 1 -16 -6
-7 -11 -10 -11 -14 0 -3 9 -6 10 -6 2z"/>
<path d="M1697 2911 c-2 -10 -14 -24 -26 -30 -17 -9 -20 -9 -15 3 7 18 -7 26
-33 20 -15 -4 -23 -20 -33 -70 -10 -46 -17 -61 -25 -54 -7 5 -15 7 -18 3 -4
-3 -7 1 -7 10 0 10 -7 17 -15 17 -8 0 -15 -8 -15 -17 -1 -17 -1 -17 -11 0 -5
9 -15 17 -21 17 -9 0 -9 -3 0 -12 14 -14 16 -48 3 -48 -5 0 -12 8 -14 18 -3 9
-5 3 -6 -15 -1 -27 2 -31 16 -26 15 6 16 5 3 -9 -13 -14 -17 -12 -32 14 -10
16 -25 31 -34 35 -13 5 -15 15 -11 48 4 28 2 49 -7 61 -12 16 -15 17 -30 2
-12 -12 -13 -18 -3 -21 9 -4 9 -7 0 -18 -15 -15 -17 -33 -4 -25 5 3 12 -1 15
-10 9 -23 7 -36 -4 -29 -5 3 -10 -1 -10 -9 0 -10 6 -13 15 -10 11 5 15 -1 15
-19 0 -14 4 -28 9 -31 5 -3 21 -35 37 -72 23 -55 25 -67 13 -75 -10 -6 -10 -9
-1 -9 7 0 17 11 22 25 10 26 20 29 93 25 21 -1 45 4 53 11 19 16 30 4 14 -16
-10 -12 -10 -25 3 -68 9 -28 19 -67 22 -85 4 -18 13 -36 21 -39 17 -6 64 -97
64 -122 0 -10 -3 -21 -7 -24 -14 -15 -13 -75 2 -90 18 -19 20 -60 3 -87 -7
-10 -9 -23 -5 -27 5 -4 12 -2 16 6 6 10 10 9 14 -4 4 -9 3 -13 -3 -10 -6 3
-10 1 -10 -5 0 -7 -7 -9 -16 -6 -10 4 -25 -3 -40 -19 -13 -14 -30 -25 -38 -25
-8 0 -18 -4 -21 -10 -3 -5 -13 -10 -21 -10 -8 0 -12 5 -9 10 8 13 2 13 -32 -2
-15 -6 -50 -16 -76 -22 -27 -6 -48 -15 -47 -20 1 -5 -4 -12 -10 -16 -8 -5 -7
-12 5 -23 11 -12 13 -22 6 -34 -5 -10 -11 -22 -13 -28 -1 -5 -8 -10 -13 -9 -6
1 -11 -14 -11 -32 0 -32 10 -46 18 -23 2 5 11 7 20 4 19 -7 29 -50 15 -64 -12
-12 -1 -45 13 -36 5 3 10 2 10 -4 0 -6 7 -8 16 -4 9 3 19 0 24 -6 5 -9 11 -8
23 4 9 9 21 14 26 11 5 -3 11 1 15 9 3 8 15 15 26 15 11 0 19 5 17 11 -1 6 4
14 12 17 10 3 12 0 8 -11 -3 -9 -2 -19 3 -22 6 -4 10 -1 10 5 0 6 11 15 25 20
14 5 25 14 25 20 0 5 4 10 10 10 5 0 9 -5 7 -12 -2 -14 43 -20 58 -8 6 5 31 7
55 5 25 -2 48 -4 53 -4 4 -1 7 -10 7 -21 0 -13 -9 -22 -27 -26 -16 -4 -36 -13
-45 -22 -11 -9 -29 -13 -48 -10 -29 4 -31 3 -27 -18 2 -13 1 -21 -4 -19 -4 3
-10 1 -14 -4 -3 -6 -12 -8 -19 -5 -9 3 -17 -3 -21 -15 -3 -12 -15 -21 -25 -21
-10 0 -22 -4 -25 -10 -3 -5 -18 -7 -33 -4 -18 3 -35 -2 -52 -17 -14 -11 -18
-17 -10 -13 13 7 13 5 2 -9 -8 -9 -11 -21 -7 -28 6 -8 10 -7 16 2 6 10 9 11 9
2 0 -7 7 -13 16 -13 27 0 9 -25 -22 -28 -44 -6 -90 -61 -85 -103 1 -9 -5 -22
-14 -29 -17 -14 -21 -35 -5 -25 6 4 13 -7 16 -24 4 -17 10 -28 15 -25 5 3 9
-6 9 -20 0 -14 -4 -28 -10 -31 -15 -9 -12 -27 3 -19 7 4 9 3 4 -2 -5 -5 -14
-9 -20 -9 -7 0 -13 -12 -15 -27 -3 -28 -16 -36 -27 -18 -3 6 -2 10 3 10 5 0
10 11 10 23 0 31 -26 31 -55 0 -28 -30 -29 -19 -3 30 17 32 18 37 4 37 -8 0
-13 -4 -10 -9 3 -4 -8 -8 -24 -7 -31 1 -43 16 -12 16 9 0 24 5 32 11 12 8 10
9 -7 4 -32 -9 -37 11 -12 47 16 22 19 33 11 36 -10 3 -10 7 0 20 11 13 10 15
-4 9 -9 -3 -19 -3 -21 1 -2 4 -3 2 -1 -4 1 -6 -3 -17 -9 -23 -9 -9 -8 -11 6
-6 18 8 24 -9 7 -20 -6 -4 -7 -12 -4 -18 4 -7 -2 -3 -13 8 -21 22 -36 65 -23
65 7 0 4 55 -4 69 -6 10 12 91 26 119 9 16 19 22 37 20 24 -3 25 -1 22 40 -2
37 0 42 18 42 12 0 21 4 21 10 0 13 -62 1 -75 -15 -20 -24 -53 -24 -76 1 -13
14 -17 24 -10 24 7 0 9 5 6 10 -3 6 -1 10 6 10 7 0 9 10 6 30 -4 17 -2 32 5
36 7 4 5 10 -6 16 -11 6 -15 18 -11 36 l5 27 -12 -27 c-14 -33 -33 -37 -24 -5
4 12 9 35 13 50 3 16 12 31 19 34 23 9 16 53 -11 75 -17 13 -25 30 -26 51 0
24 -2 27 -8 14 -4 -10 -11 -18 -16 -16 -6 1 -15 -8 -21 -20 -6 -11 -14 -18
-17 -14 -4 3 -7 -12 -7 -34 0 -25 6 -46 16 -54 10 -8 13 -21 9 -38 -10 -37
-12 -91 -4 -91 4 0 5 -10 1 -22 -5 -23 -5 -23 16 -4 12 11 25 16 30 12 4 -4
-2 -14 -12 -22 -11 -7 -17 -17 -13 -20 4 -4 13 -1 22 6 9 7 18 10 22 7 3 -4
-2 -9 -11 -13 -9 -3 -13 -11 -9 -17 4 -6 1 -8 -8 -5 -11 4 -14 -9 -14 -71 0
-42 3 -81 7 -87 4 -7 2 -17 -6 -23 -11 -9 -15 -5 -20 20 -3 17 -3 36 1 42 3 5
2 7 -4 4 -6 -4 -19 13 -29 36 -17 39 -34 60 -42 52 -7 -7 11 -74 19 -69 9 5
14 -52 11 -106 -1 -13 4 -28 11 -32 6 -4 12 -28 13 -54 1 -25 7 -50 14 -54 6
-4 11 -10 11 -14 -2 -16 12 -66 19 -66 9 0 7 126 -2 135 -4 4 -3 17 2 30 5 14
5 26 -2 33 -8 8 -5 16 7 29 18 17 18 17 12 -8 -4 -14 -3 -29 0 -33 16 -15 31
-101 21 -113 -7 -9 -7 -13 0 -13 6 0 9 -7 6 -15 -4 -8 -3 -23 1 -32 11 -26 12
-46 1 -61 -5 -7 -4 -12 2 -12 6 0 13 4 17 10 3 5 12 7 20 4 13 -5 13 -8 0 -21
-8 -8 -19 -12 -24 -9 -5 4 -8 -1 -7 -11 2 -9 11 -19 21 -23 12 -4 15 -9 8 -13
-6 -4 -9 -16 -6 -26 3 -10 0 -28 -6 -40 -7 -12 -8 -21 -3 -21 6 0 12 10 15 22
7 27 18 19 21 -16 2 -15 -1 -23 -7 -19 -6 4 -7 1 -1 -8 13 -21 14 -42 2 -56
-8 -10 -6 -13 5 -13 21 0 29 -27 12 -44 -18 -18 -19 -37 -2 -34 8 2 11 -8 10
-27 0 -16 1 -24 4 -17 2 6 12 12 20 12 13 0 13 -3 3 -16 -11 -12 -11 -15 1
-12 10 2 13 -5 11 -22 -4 -24 -3 -25 12 -5 8 11 16 15 16 8 0 -6 -5 -15 -10
-18 -6 -4 -8 -23 -5 -43 l5 -37 -12 35 c-8 24 -13 30 -15 17 -3 -9 -9 -17 -15
-17 -6 0 -8 9 -5 20 3 11 1 20 -4 20 -5 0 -9 -11 -9 -25 0 -14 5 -25 10 -25 6
0 10 -7 10 -16 0 -8 5 -12 10 -9 6 3 10 -3 10 -13 0 -11 7 -25 15 -32 8 -7 15
-9 15 -4 0 4 10 -2 23 -14 16 -15 42 -23 104 -29 94 -10 163 -6 142 9 -9 5 -4
6 14 2 15 -3 27 -2 27 4 0 5 9 12 20 15 11 3 18 1 15 -4 -4 -5 4 -5 17 0 28
10 86 -3 134 -30 20 -11 43 -18 50 -15 19 7 45 -4 38 -16 -11 -18 -11 -58 0
-58 14 0 40 -56 32 -69 -4 -5 0 -16 8 -24 8 -8 13 -17 10 -20 -3 -3 2 -21 10
-41 8 -20 13 -43 10 -51 -4 -9 3 -16 19 -20 31 -8 46 -45 50 -122 0 -7 5 -13
11 -13 6 0 5 -4 -3 -9 -11 -7 -9 -11 8 -20 13 -8 21 -21 21 -38 0 -39 46 -83
87 -83 31 0 32 1 27 33 -12 67 -45 167 -54 162 -13 -8 -13 11 -1 34 6 10 6 23
0 32 -7 11 -9 11 -9 -3 0 -10 -4 -18 -9 -18 -5 0 -7 9 -4 19 7 27 -14 61 -37
61 -12 0 -20 7 -20 16 0 8 -7 22 -15 30 -19 20 -19 65 0 90 8 10 15 33 15 50
0 17 7 37 16 45 14 12 14 14 -2 26 -13 9 -14 16 -6 26 14 17 4 57 -14 57 -8 0
-14 5 -14 10 0 6 5 10 12 10 6 0 3 7 -8 15 -18 14 -18 15 21 49 22 20 43 36
47 36 8 0 108 100 108 107 0 9 50 53 61 53 5 0 9 5 9 10 0 6 11 15 25 20 14 5
25 14 25 20 0 5 8 10 18 10 10 0 31 14 48 31 32 34 78 62 87 53 3 -4 27 8 52
25 25 17 50 31 54 31 4 0 16 9 26 20 10 11 22 20 27 20 5 0 33 16 62 35 29 19
58 35 63 35 6 0 23 19 39 43 16 23 35 46 41 50 7 4 13 16 13 25 0 10 5 23 11
29 6 6 12 33 13 60 1 27 5 54 9 60 5 7 1 25 -6 40 -8 15 -18 43 -22 60 -5 28
-4 32 9 27 20 -8 21 10 1 26 -11 9 -13 16 -5 24 14 14 13 26 -4 26 -16 0 -31
30 -19 39 8 6 9 24 3 46 -2 6 -4 17 -4 25 -1 9 -9 14 -21 12 -19 -3 -20 -3 -1
11 17 12 17 15 3 20 -10 4 -14 14 -12 27 2 12 -1 20 -10 20 -9 0 -12 -8 -10
-22 6 -32 -15 -53 -53 -54 -19 -1 -28 2 -22 6 9 6 9 12 1 26 -10 18 -11 18
-17 -3 -4 -14 -11 -20 -18 -16 -6 4 -4 -2 4 -12 8 -10 10 -16 3 -12 -7 5 -14
-4 -18 -23 -5 -21 -13 -30 -26 -30 -11 0 -18 -4 -15 -9 4 -5 0 -11 -6 -14 -7
-3 2 -4 21 -3 21 1 36 -4 39 -13 3 -10 0 -12 -12 -8 -10 4 -16 1 -16 -8 0 -8
-4 -15 -10 -15 -5 0 -10 7 -10 15 0 8 -6 15 -13 15 -7 0 -19 9 -27 20 -8 11
-20 20 -26 20 -7 0 -14 6 -16 12 -3 7 -7 3 -10 -9 -4 -14 -2 -20 6 -18 14 5
52 -22 43 -31 -4 -4 -14 -1 -22 6 -9 7 -30 13 -48 13 -18 0 -24 2 -14 4 9 3
15 9 12 14 -4 5 -14 5 -26 -1 -16 -9 -19 -7 -19 9 0 22 20 40 20 19 1 -7 6 -4
13 8 7 12 18 19 25 17 6 -3 12 0 12 6 0 6 -4 11 -8 11 -4 0 -8 8 -9 18 -1 9
-7 34 -15 55 -13 38 -14 39 -55 34 -33 -3 -46 0 -59 14 -20 22 -13 35 13 24
10 -5 21 -7 26 -7 4 1 7 -3 7 -8 0 -6 10 -10 22 -10 l22 0 -23 23 c-17 16 -25
18 -28 9 -4 -10 -8 -10 -19 -1 -8 6 -12 15 -9 19 3 4 -3 14 -12 21 -15 12 -16
12 -10 -3 4 -12 0 -21 -13 -28 -28 -15 -38 -12 -16 5 14 11 16 15 5 15 -21 -1
-49 -25 -49 -43 0 -25 -27 -10 -42 23 -7 16 -15 27 -19 24 -4 -2 -11 6 -15 18
-7 22 -7 22 -15 3 -6 -17 -8 -17 -8 -2 -1 10 -9 17 -20 17 -11 0 -22 4 -25 9
-3 5 -14 11 -25 14 -17 4 -15 -4 15 -66 35 -73 41 -97 25 -97 -5 0 -11 -23
-13 -51 -4 -38 -12 -57 -32 -75 -21 -20 -26 -34 -26 -69 0 -39 -3 -45 -22 -45
-12 0 -18 3 -15 7 4 3 0 11 -9 17 -16 12 -9 50 7 40 5 -3 9 24 9 61 0 65 -30
155 -51 155 -6 0 -23 13 -39 30 -16 17 -32 30 -36 30 -4 0 -20 14 -36 32 -21
23 -25 34 -16 40 21 13 37 9 55 -12 13 -15 20 -17 30 -8 11 9 6 14 -24 24 -21
8 -49 14 -63 14 -24 0 -24 0 -5 14 11 7 40 14 65 14 67 0 72 1 65 12 -4 6 -15
8 -25 5 -16 -5 -18 -1 -16 40 2 36 -1 45 -14 45 -24 0 -40 21 -40 51 0 18 6
29 18 32 13 4 12 5 -5 6 -34 2 -39 21 -5 21 19 0 37 10 56 31 15 17 34 28 41
25 9 -3 12 0 9 9 -3 8 -18 16 -32 18 -16 2 -6 5 23 6 28 2 44 5 38 8 -18 7
-16 23 3 23 8 0 13 4 9 9 -3 5 0 13 6 17 6 3 15 0 20 -7 7 -12 9 -11 9 2 0 28
25 69 41 69 9 0 19 7 23 15 3 10 -1 15 -13 15 -10 0 -45 13 -77 30 -32 16 -65
30 -71 30 -7 0 -13 4 -13 9 0 5 -11 12 -25 15 -33 8 -32 23 3 29 15 3 -9 5
-53 5 -110 -1 -107 -1 -94 20 8 13 25 18 66 19 30 1 60 7 68 13 9 8 24 8 47 1
18 -5 26 -10 18 -12 -8 -1 10 -5 40 -9 83 -11 85 0 5 39 -11 5 -15 10 -10 11
16 1 -38 29 -60 31 -11 1 -2 5 20 9 40 8 40 8 -11 7 -36 0 -57 4 -69 16 -9 9
-25 17 -35 17 -28 0 -51 11 -44 21 3 5 19 9 37 9 19 0 27 4 22 9 -6 5 -56 11
-113 13 -89 3 -105 1 -113 -14 -5 -10 -16 -15 -24 -12 -10 4 -15 0 -16 -12 0
-16 -2 -16 -11 4 -6 12 -19 22 -29 22 -10 0 -21 5 -24 10 -10 16 -22 12 -28
-9z m58 -21 c3 -5 -1 -10 -9 -10 -9 0 -16 5 -16 10 0 6 4 10 9 10 6 0 13 -4
16 -10z m-235 -139 c0 -6 -4 -13 -10 -16 -5 -3 -10 1 -10 9 0 9 5 16 10 16 6
0 10 -4 10 -9z m-23 -73 c-3 -8 -6 -5 -6 6 -1 11 2 17 5 13 3 -3 4 -12 1 -19z
m570 6 c-3 -3 -12 -4 -19 -1 -8 3 -5 6 6 6 11 1 17 -2 13 -5z m168 -94 c3 -5
2 -10 -4 -10 -5 0 -13 5 -16 10 -3 6 -2 10 4 10 5 0 13 -4 16 -10z m-158 -16
c-3 -3 -12 -4 -19 -1 -8 3 -5 6 6 6 11 1 17 -2 13 -5z m42 -11 c-3 -21 3 -33
17 -33 8 0 12 -5 9 -10 -5 -8 -11 -7 -21 1 -8 6 -23 9 -34 6 -13 -3 -24 1 -30
13 -8 15 -6 19 13 23 38 7 47 7 46 0z m71 -1 c0 -5 -6 -16 -13 -26 -12 -16
-14 -16 -32 5 -11 12 -14 19 -8 15 7 -4 21 -2 30 3 22 13 23 13 23 3z m40 -32
c0 -5 -4 -10 -10 -10 -5 0 -10 5 -10 10 0 6 5 10 10 10 6 0 10 -4 10 -10z
m-90 -30 c22 -7 21 -8 -12 -9 -20 -1 -40 4 -43 9 -7 12 19 12 55 0z m490 -637
c0 -2 -4 -1 -10 2 -5 3 -10 -1 -10 -10 0 -9 -5 -13 -11 -9 -8 4 -8 9 0 17 15
15 14 24 -4 24 -8 0 -15 -7 -16 -16 0 -10 -4 -6 -10 8 -6 17 -6 28 1 35 8 8 9
7 5 -5 -4 -10 0 -16 10 -16 12 0 15 7 11 26 -4 18 0 14 14 -13 11 -22 20 -41
20 -43z m-72 -41 c6 -18 -15 -14 -22 4 -4 10 -1 14 6 12 6 -2 14 -10 16 -16z
m37 8 c3 -5 1 -10 -4 -10 -6 0 -11 5 -11 10 0 6 2 10 4 10 3 0 8 -4 11 -10z
m291 -6 c15 -11 23 -23 19 -32 -3 -8 2 -23 11 -33 15 -17 15 -19 1 -19 -9 0
-19 5 -22 10 -3 6 -11 10 -17 10 -6 0 1 -10 16 -21 15 -12 30 -19 33 -15 7 7
33 -13 33 -26 0 -5 -9 -4 -19 2 -32 17 -34 11 -4 -15 15 -13 22 -25 15 -25 -7
0 -11 -4 -7 -9 3 -6 -5 -8 -17 -6 -20 4 -21 3 -7 -8 20 -16 30 -55 15 -61 -6
-2 -2 -5 10 -5 12 -1 26 -12 33 -28 11 -23 10 -25 -3 -13 -13 10 -16 10 -16
-4 0 -9 -5 -16 -11 -16 -6 0 -8 8 -4 19 6 20 -11 39 -23 26 -4 -4 -1 -10 6
-12 9 -4 10 -8 2 -18 -8 -10 -5 -17 12 -29 12 -9 17 -16 10 -16 -6 0 -12 -6
-12 -14 0 -8 -4 -17 -9 -20 -4 -3 -6 6 -3 19 4 26 -12 35 -22 13 -3 -7 -4 -4
-1 7 5 24 -3 39 -29 48 -18 7 -18 6 -2 -17 21 -32 21 -42 0 -21 -14 13 -19 14
-25 3 -7 -10 -9 -9 -9 4 0 9 -4 19 -9 22 -14 9 -7 -28 8 -40 8 -6 15 -25 16
-41 1 -26 -1 -30 -19 -25 -12 3 -27 14 -34 24 -7 10 -19 18 -25 18 -7 0 -4 -7
6 -14 19 -14 23 -36 7 -36 -5 0 -10 5 -10 11 0 5 -4 7 -10 4 -5 -3 -10 1 -10
9 0 9 -4 16 -9 16 -23 0 -41 -14 -41 -31 0 -10 -5 -19 -11 -19 -5 0 -7 5 -3
11 3 6 -6 23 -20 38 -25 26 -28 61 -6 61 5 0 6 10 3 23 -6 22 -6 21 16 -3 20
-22 21 -22 12 -3 -17 35 -13 45 11 23 30 -28 37 -16 8 15 -13 14 -20 28 -16
32 4 4 11 1 15 -6 5 -7 11 -9 14 -4 3 5 2 15 -4 23 -14 24 -10 31 11 20 14 -7
20 -7 20 0 0 5 -6 10 -12 10 -9 0 -8 4 2 10 11 7 4 8 -22 5 -29 -4 -38 -1 -38
10 0 17 16 20 25 5 3 -5 12 -7 20 -4 8 4 12 10 9 15 -3 5 0 9 6 9 6 0 13 -7
16 -15 4 -8 11 -12 16 -9 6 4 6 9 -2 14 -9 6 -7 13 9 29 23 23 27 46 11 56
-22 14 -8 23 31 21 22 -2 37 -1 32 3 -9 7 -16 51 -8 51 3 0 17 -7 31 -16z
m-896 -13 c0 -20 -92 -41 -202 -46 -102 -5 -118 -4 -118 10 0 8 8 15 18 15 10
0 22 3 26 8 23 22 276 35 276 13z m-342 -24 c4 -21 -17 -32 -24 -13 -3 9 -9
14 -13 12 -3 -2 -12 2 -19 10 -11 12 -7 13 20 10 20 -2 34 -9 36 -19z m1282
-7 c0 -5 -4 -10 -10 -10 -5 0 -10 5 -10 10 0 6 5 10 10 10 6 0 10 -4 10 -10z
m-340 -35 c4 3 6 -4 3 -15 -3 -11 -10 -17 -16 -13 -6 4 -8 -2 -5 -15 5 -18 3
-19 -13 -9 -10 6 -16 13 -14 16 3 2 0 10 -6 17 -9 11 -6 16 12 23 14 5 25 5
27 0 2 -5 7 -7 12 -4z m50 -48 c0 -5 -4 -5 -10 -2 -5 3 -10 14 -10 23 0 15 2
15 10 2 5 -8 10 -19 10 -23z m-430 -47 c0 -11 -4 -20 -9 -20 -5 0 -11 9 -14
20 -3 13 0 20 9 20 8 0 14 -9 14 -20z m-243 -7 c2 -6 -6 -14 -19 -17 l-23 -7
25 -11 c23 -10 23 -11 5 -16 -11 -2 -23 -9 -27 -16 -5 -7 -8 -4 -8 7 0 17 -1
17 -25 0 -14 -11 -25 -28 -25 -43 0 -14 -5 -32 -10 -40 -7 -11 -10 -6 -11 20
0 19 -3 29 -6 23 -2 -7 -11 -13 -18 -13 -11 0 -12 -6 -3 -31 6 -16 8 -32 5
-35 -3 -3 -8 4 -12 15 -9 29 -23 26 -31 -4 -6 -24 -17 -26 -20 -4 -3 22 -6 23
-14 4 -7 -17 -9 -17 -9 -2 -1 9 -8 17 -16 17 -9 0 -12 -6 -8 -17 4 -10 2 -14
-5 -9 -6 3 -14 2 -17 -4 -5 -8 -11 -8 -20 0 -7 6 -20 8 -29 4 -22 -8 -32 21
-17 52 8 19 16 24 32 19 11 -4 30 0 44 9 13 9 33 16 43 16 10 0 22 4 28 9 5 5
25 11 44 13 19 2 42 11 52 20 10 10 29 20 43 24 14 3 25 13 25 21 0 16 22 13
27 -4z m743 -20 c0 -5 -7 -17 -16 -28 -14 -19 -14 -19 -10 5 2 14 5 26 5 28 2
6 21 1 21 -5z m-473 -39 c-3 -3 -12 -4 -19 -1 -8 3 -5 6 6 6 11 1 17 -2 13 -5z
m-37 -24 c0 -5 -5 -10 -11 -10 -5 0 -7 5 -4 10 3 6 8 10 11 10 2 0 4 -4 4 -10z
m-304 -27 c-10 -10 -19 5 -10 18 6 11 8 11 12 0 2 -7 1 -15 -2 -18z m299 -3
c10 16 24 12 22 -9 -1 -22 -30 -17 -49 8 -11 14 -11 14 4 3 11 -9 18 -10 23
-2z m688 -65 c11 -16 13 -26 6 -30 -12 -8 -11 -9 -27 28 -14 33 -3 35 21 2z
m-655 -71 c-4 -3 -12 5 -18 18 -12 22 -12 22 6 6 10 -10 15 -20 12 -24z m402
-4 c0 -5 -4 -10 -10 -10 -5 0 -10 5 -10 10 0 6 5 10 10 10 6 0 10 -4 10 -10z
m132 -19 c8 11 9 11 5 -1 -4 -17 -47 -27 -47 -12 0 14 24 21 29 9 2 -5 8 -3
13 4z m53 -11 c3 -6 -1 -7 -9 -4 -18 7 -21 14 -7 14 6 0 13 -4 16 -10z m-331
-36 c3 -8 2 -12 -4 -9 -6 3 -10 10 -10 16 0 14 7 11 14 -7z m226 -9 c0 -8 -4
-15 -9 -15 -13 0 -22 16 -14 24 11 11 23 6 23 -9z m-80 -19 c0 -8 -6 -16 -14
-19 -10 -4 -12 0 -9 14 6 22 23 26 23 5z m-1105 -6 c3 -5 1 -10 -4 -10 -6 0
-11 5 -11 10 0 6 2 10 4 10 3 0 8 -4 11 -10z m695 -30 c0 -5 -4 -10 -9 -10 -6
0 -13 5 -16 10 -3 6 1 10 9 10 9 0 16 -4 16 -10z m0 -54 c0 -2 -7 -7 -16 -10
-8 -3 -12 -2 -9 4 6 10 25 14 25 6z m-903 -52 c-3 -3 -12 -4 -19 -1 -8 3 -5 6
6 6 11 1 17 -2 13 -5z m850 -19 c0 -17 -13 -20 -21 -6 -4 5 0 12 6 14 7 3 13
6 14 6 0 1 1 -6 1 -14z m-18 -31 c2 -2 2 -7 -2 -10 -3 -3 -16 2 -29 11 l-23
17 25 -7 c14 -4 27 -9 29 -11z m51 6 c0 -5 -4 -10 -10 -10 -5 0 -10 5 -10 10
0 6 5 10 10 10 6 0 10 -4 10 -10z m-49 -93 c-10 -9 -11 -8 -5 6 3 10 9 15 12
12 3 -3 0 -11 -7 -18z m-762 -20 c-3 -24 1 -38 10 -33 9 6 24 -35 16 -43 -3
-2 -5 0 -5 6 0 6 -9 9 -21 6 -21 -6 -39 10 -39 36 0 11 3 11 15 1 17 -14 21 0
4 17 -6 6 -8 16 -4 22 8 14 26 4 24 -12z m671 8 c0 15 3 15 15 5 19 -16 16
-52 -5 -58 -13 -5 -13 -3 -1 11 12 15 11 17 -7 17 -11 0 -23 -8 -25 -17 -4
-15 -6 -15 -12 4 -4 13 -11 20 -16 17 -10 -6 -12 19 -3 29 4 3 17 -1 30 -10
22 -14 24 -14 24 2z m-133 -25 c3 -11 9 -20 14 -20 5 0 9 -9 9 -20 0 -11 -4
-20 -10 -20 -5 0 -10 9 -10 21 0 11 -4 17 -10 14 -6 -3 -7 1 -4 9 3 9 1 16 -5
16 -6 0 -11 5 -11 10 0 18 22 10 27 -10z m206 -14 c8 5 7 2 -1 -7 -11 -12 -14
-12 -22 1 -5 8 -10 20 -10 25 1 6 5 2 11 -8 6 -9 16 -14 22 -11z m-679 -5 c3
-5 -1 -11 -9 -14 -9 -4 -12 -1 -8 9 6 16 10 17 17 5z m629 -27 c3 -3 3 -13 0
-21 -5 -12 -7 -12 -14 -1 -15 23 -4 40 14 22z m-643 -28 c0 -3 -4 -8 -10 -11
-5 -3 -10 -1 -10 4 0 6 5 11 10 11 6 0 10 -2 10 -4z m-61 -31 c3 -17 2 -17
-13 -3 -19 20 -21 31 -3 26 6 -3 14 -13 16 -23z m28 -17 c-3 -7 -5 -2 -5 12 0
14 2 19 5 13 2 -7 2 -19 0 -25z m56 12 c-3 -12 -8 -19 -11 -16 -5 6 5 36 12
36 2 0 2 -9 -1 -20z m607 -357 c0 -5 -5 -15 -10 -23 -8 -12 -10 -11 -10 8 0
12 5 22 10 22 6 0 10 -3 10 -7z"/>
<path d="M2824 1765 c11 -8 24 -15 30 -15 5 0 1 7 -10 15 -10 8 -23 14 -29 14
-5 0 -1 -6 9 -14z"/>
<path d="M2830 1735 c0 -5 5 -17 10 -25 5 -8 10 -10 10 -5 0 6 -5 17 -10 25
-5 8 -10 11 -10 5z"/>
<path d="M2807 1697 c-3 -7 2 -22 10 -32 12 -15 14 -16 10 -3 -3 9 -2 18 3 20
4 2 2 8 -5 15 -10 9 -14 9 -18 0z"/>
<path d="M2856 1691 c-4 -6 -3 -18 3 -25 6 -7 7 -17 3 -21 -4 -5 -2 -5 4 -2 7
4 14 -3 18 -18 4 -14 11 -23 16 -20 6 3 10 1 10 -5 0 -6 5 -8 12 -4 8 5 5 10
-9 17 -24 11 -38 48 -22 58 8 5 8 9 0 13 -6 4 -11 1 -12 -6 0 -7 -4 -4 -8 6
-5 14 -10 16 -15 7z"/>
<path d="M2808 1583 c6 -2 12 -11 12 -19 0 -8 7 -14 15 -14 8 0 15 4 15 10 0
10 -33 31 -47 29 -4 0 -2 -3 5 -6z"/>
<path d="M2893 1565 c-7 -8 -9 -16 -4 -19 5 -3 12 1 15 10 8 22 4 25 -11 9z"/>
<path d="M2750 1514 c0 -10 -6 -14 -15 -10 -9 3 -15 0 -15 -10 0 -8 5 -12 10
-9 6 3 10 1 10 -4 0 -25 15 -8 17 19 1 17 0 30 -2 30 -3 0 -5 -7 -5 -16z"/>
<path d="M2792 1506 c7 -8 15 -12 17 -11 5 6 -10 25 -20 25 -5 0 -4 -6 3 -14z"/>
<path d="M2671 1491 c-12 -8 -11 -13 10 -30 13 -11 26 -15 27 -10 2 5 8 7 13
3 16 -10 9 13 -9 29 -21 20 -22 20 -41 8z"/>
<path d="M2810 1466 c0 -2 8 -10 18 -17 15 -13 16 -12 3 4 -13 16 -21 21 -21
13z"/>
<path d="M1630 1489 c0 -5 5 -7 10 -4 6 3 10 8 10 11 0 2 -4 4 -10 4 -5 0 -10
-5 -10 -11z"/>
<path d="M2580 2920 c-8 -5 -11 -12 -8 -16 4 -3 14 1 23 10 18 17 9 21 -15 6z"/>
<path d="M2617 2913 c-12 -11 -8 -19 11 -19 9 -1 26 -5 37 -9 14 -6 13 -2 -7
13 -29 24 -32 25 -41 15z"/>
<path d="M2065 2880 c-4 -7 3 -8 22 -4 38 9 42 14 10 14 -14 0 -29 -5 -32 -10z"/>
<path d="M2250 2775 c7 -9 15 -13 17 -11 7 7 -7 26 -19 26 -6 0 -6 -6 2 -15z"/>
<path d="M1294 2702 c-6 -4 -13 -15 -17 -24 -3 -10 -13 -18 -22 -18 -8 0 -15
-6 -15 -12 0 -9 -3 -8 -10 2 -8 13 -11 13 -22 -2 -7 -9 -20 -18 -28 -20 -8 -2
-29 -13 -47 -25 -17 -13 -39 -23 -48 -23 -10 0 -13 -5 -9 -12 5 -7 0 -9 -14
-6 -18 5 -20 3 -11 -19 11 -30 11 -33 0 -33 -5 0 -12 9 -14 20 -3 15 -4 14 -3
-4 0 -14 -3 -26 -9 -28 -17 -5 -17 42 -1 67 9 13 16 30 16 37 -1 18 -39 -33
-40 -52 0 -13 -1 -13 -10 0 -7 11 -10 3 -9 -30 0 -36 2 -41 10 -25 7 16 9 14
6 -13 -2 -18 0 -35 5 -38 4 -3 8 3 8 14 0 17 8 19 80 21 51 1 80 -2 80 -8 0
-6 -7 -11 -15 -11 -8 0 -19 -9 -25 -19 -5 -11 -18 -22 -29 -26 -10 -3 -18 -13
-17 -21 0 -9 -8 -21 -19 -28 -34 -19 -46 -43 -21 -43 8 0 12 6 9 14 -3 7 2 13
12 13 9 0 13 -4 10 -10 -3 -5 -1 -10 4 -10 6 0 11 -7 11 -15 0 -8 5 -15 10
-15 6 0 10 -9 10 -19 0 -28 18 -35 22 -9 2 12 15 29 29 37 24 13 28 13 44 -2
16 -16 16 -19 1 -42 -15 -23 -15 -25 1 -25 16 -1 15 -3 -4 -19 -13 -11 -23
-21 -23 -24 0 -3 10 -3 23 0 22 4 22 4 2 -11 -39 -30 -46 -38 -40 -44 3 -4 10
0 15 8 8 12 10 9 10 -10 0 -20 2 -22 10 -10 5 8 10 10 10 4 0 -7 17 5 38 25
43 42 77 107 122 239 29 87 30 95 14 106 -13 10 -15 21 -10 48 7 41 0 68 -20
68 -8 0 -14 6 -14 14 0 7 -11 22 -25 32 -17 13 -21 21 -12 26 6 4 9 9 6 12 -2
3 -9 2 -15 -2z m-73 -85 c-13 -13 -26 -3 -16 12 3 6 11 8 17 5 6 -4 6 -10 -1
-17z m-11 -279 c0 -5 -4 -8 -10 -8 -5 0 -10 10 -10 23 0 18 2 19 10 7 5 -8 10
-18 10 -22z m20 -172 c0 -3 -4 -8 -10 -11 -5 -3 -10 -1 -10 4 0 6 5 11 10 11
6 0 10 -2 10 -4z"/>
<path d="M2730 2670 c0 -5 5 -10 10 -10 6 0 10 5 10 10 0 6 -4 10 -10 10 -5 0
-10 -4 -10 -10z"/>
<path d="M1390 2659 c0 -5 -4 -7 -10 -4 -5 3 -10 2 -10 -4 0 -19 16 -19 28 0
7 11 8 19 2 19 -5 0 -10 -5 -10 -11z"/>
<path d="M3137 2573 c-4 -3 14 -29 38 -58 34 -39 45 -60 45 -86 0 -26 42 -109
55 -109 2 0 -1 15 -5 33 -5 17 -14 57 -20 87 -8 37 -23 66 -44 88 -35 38 -60
54 -69 45z"/>
<path d="M2836 2396 c15 -12 17 -18 8 -33 -6 -10 -21 -23 -32 -29 -12 -6 -19
-14 -15 -17 3 -4 -2 -7 -13 -7 -16 0 -19 -7 -19 -41 0 -28 -6 -44 -18 -50 -23
-13 -22 -49 1 -50 14 0 14 -2 -3 -8 -11 -5 -23 -7 -27 -5 -3 2 -4 -6 0 -18 3
-14 2 -19 -6 -14 -7 4 -12 1 -12 -8 0 -9 5 -16 10 -16 6 0 10 -9 10 -20 0 -11
-4 -20 -10 -20 -5 0 -10 7 -10 17 0 9 -3 13 -7 10 -3 -4 -12 -2 -20 4 -8 8
-13 8 -13 1 0 -6 6 -12 13 -15 9 -3 9 -8 -2 -21 -11 -13 -16 -14 -23 -4 -6 8
-8 -5 -5 -36 l5 -49 -20 32 c-11 17 -24 31 -30 31 -5 0 -6 -4 -3 -10 3 -5 8
-20 10 -32 3 -13 9 -24 15 -26 5 -2 10 -15 10 -29 0 -18 4 -24 14 -20 11 4 14
-1 13 -20 -1 -15 4 -28 13 -31 13 -5 13 -3 1 11 -11 14 -11 20 -1 32 10 12 10
15 0 15 -9 0 -10 3 -1 13 7 9 7 17 0 24 -12 12 35 28 53 17 7 -4 8 -3 4 4 -4
8 0 12 11 12 15 0 16 2 3 10 -25 16 -2 23 30 10 23 -9 28 -15 18 -21 -7 -5 -8
-9 -2 -9 6 0 11 -7 11 -15 0 -8 -6 -15 -13 -15 -6 0 -14 7 -18 15 -3 8 -10 15
-16 15 -6 0 -8 -4 -5 -10 3 -5 0 -10 -7 -10 -9 0 -9 -3 2 -10 13 -8 13 -11 1
-19 -13 -8 6 -16 67 -27 7 -1 25 -14 39 -29 34 -34 51 -20 36 30 -10 30 -9 35
4 33 9 -2 18 3 20 10 3 6 0 12 -6 12 -6 0 -11 9 -11 20 0 14 5 18 18 14 16 -5
16 -5 1 8 -26 21 -37 145 -27 293 7 87 -5 115 -45 115 -21 0 -21 0 -1 -14z
m-79 -271 c8 -9 13 -19 10 -22 -6 -5 -37 21 -37 31 0 10 11 6 27 -9z m54 -45
c15 0 10 -28 -7 -34 -9 -3 -14 -13 -11 -20 5 -12 0 -13 -31 -2 -41 14 -49 39
-14 44 12 2 22 8 22 14 0 5 7 7 16 4 9 -3 20 -6 25 -6z m-91 -80 c0 -5 -5 -10
-11 -10 -5 0 -7 5 -4 10 3 6 8 10 11 10 2 0 4 -4 4 -10z m80 -72 c0 -14 -17
-8 -35 12 -17 19 -17 19 9 7 14 -7 26 -15 26 -19z m44 6 c9 -3 13 -10 10 -15
-3 -5 -1 -9 4 -9 6 0 13 -7 16 -15 5 -13 1 -12 -18 2 -13 10 -22 21 -20 25 2
3 -2 9 -8 11 -7 3 -10 6 -6 6 3 1 13 -2 22 -5z"/>
<path d="M2772 2068 c-16 -16 -15 -28 3 -28 8 0 15 9 15 20 0 23 -2 24 -18 8z"/>
<path d="M1411 2364 c0 -11 3 -14 6 -6 3 7 2 16 -1 19 -3 4 -6 -2 -5 -13z"/>
<path d="M3020 2347 c0 -9 17 -28 38 -43 50 -36 82 -92 82 -143 0 -35 3 -41
20 -41 50 0 100 63 100 124 0 37 -14 61 -29 52 -6 -4 -11 0 -11 11 -1 16 -1
17 -10 1 -8 -13 -16 -15 -42 -7 -18 5 -36 15 -40 23 -4 7 -24 17 -44 20 -19 4
-42 10 -50 13 -8 3 -14 -1 -14 -10z"/>
<path d="M2740 2260 c0 -5 5 -10 11 -10 5 0 7 5 4 10 -3 6 -8 10 -11 10 -2 0
-4 -4 -4 -10z"/>
<path d="M2260 2110 c0 -5 7 -10 16 -10 8 0 12 5 9 10 -3 6 -10 10 -16 10 -5
0 -9 -4 -9 -10z"/>
<path d="M3091 2104 c-1 -6 -19 -17 -41 -24 -38 -13 -46 -30 -12 -30 25 1 65
35 59 51 -3 8 -6 9 -6 3z"/>
<path d="M1300 2078 c0 -5 11 -8 25 -8 14 0 25 4 25 9 0 5 -11 8 -25 7 -14 0
-25 -4 -25 -8z"/>
<path d="M1505 2035 c-33 -14 -61 -25 -62 -25 -2 0 -3 -4 -3 -10 0 -14 37 -12
68 4 15 8 51 14 80 14 60 0 65 2 56 26 -9 24 -68 20 -139 -9z"/>
<path d="M2540 2053 c0 -5 7 -18 15 -29 13 -18 14 -18 8 4 -5 22 -23 41 -23
25z"/>
<path d="M2424 2025 c-15 -13 -25 -27 -22 -30 5 -6 58 40 58 50 0 9 -7 5 -36
-20z"/>
<path d="M1341 2026 c-9 -10 -6 -17 13 -30 35 -22 53 -21 33 2 -10 10 -17 24
-17 30 0 16 -15 15 -29 -2z"/>
<path d="M1296 1982 c-7 -12 21 -37 52 -46 26 -9 31 11 5 21 -10 3 -25 12 -35
20 -9 8 -19 10 -22 5z"/>
<path d="M1388 1963 c6 -2 18 -2 25 0 6 3 1 5 -13 5 -14 0 -19 -2 -12 -5z"/>
<path d="M1350 1900 c-20 -16 -21 -20 -8 -20 10 0 22 9 28 20 13 25 11 25 -20
0z"/>
<path d="M2740 1900 c20 -13 33 -13 25 0 -3 6 -14 10 -23 10 -15 0 -15 -2 -2
-10z"/>
<path d="M2730 1865 c0 -8 6 -18 14 -22 8 -4 16 -19 18 -33 l4 -25 5 26 c4 19
-1 31 -18 47 -16 14 -23 16 -23 7z"/>
<path d="M2765 1870 c-3 -5 -1 -10 4 -10 6 0 11 5 11 10 0 6 -2 10 -4 10 -3 0
-8 -4 -11 -10z"/>
<path d="M1345 1860 c-3 -5 -3 -11 2 -11 4 -1 -5 -5 -22 -9 l-30 -8 28 -1 c25
-1 41 -21 16 -21 -11 0 -39 -24 -39 -34 0 -3 7 -6 15 -6 8 0 15 -7 15 -15 0
-18 19 -20 21 -2 5 41 7 54 13 75 4 12 13 22 19 22 7 0 6 4 -3 10 -19 12 -27
12 -35 0z"/>
<path d="M2673 1827 c1 -5 5 -7 9 -5 3 2 16 -6 29 -17 16 -14 20 -15 10 -3 -7
9 -10 21 -7 26 3 6 -5 9 -19 8 -14 0 -24 -5 -22 -9z"/>
<path d="M1195 1640 c-3 -5 -1 -10 4 -10 6 0 11 5 11 10 0 6 -2 10 -4 10 -3 0
-8 -4 -11 -10z"/>
<path d="M1200 1589 c0 -5 5 -7 10 -4 6 3 10 8 10 11 0 2 -4 4 -10 4 -5 0 -10
-5 -10 -11z"/>
<path d="M1531 1504 c0 -11 3 -14 6 -6 3 7 2 16 -1 19 -3 4 -6 -2 -5 -13z"/>
<path d="M1461 1398 c0 -13 3 -17 6 -10 2 6 9 10 14 6 5 -3 9 2 9 10 0 9 -7
16 -15 16 -9 0 -15 -9 -14 -22z"/>
<path d="M1423 1400 c-25 -10 -30 -25 -11 -36 7 -4 8 -3 4 4 -4 7 -1 12 7 12
8 0 17 7 21 15 3 8 4 15 3 14 -1 0 -12 -4 -24 -9z"/>
<path d="M1365 1380 c4 -6 11 -8 16 -5 14 9 11 15 -7 15 -8 0 -12 -5 -9 -10z"/>
<path d="M1390 1260 c-8 -5 -10 -10 -5 -10 6 0 17 5 25 10 8 5 11 10 5 10 -5
0 -17 -5 -25 -10z"/>
<path d="M1450 1200 c-9 -6 -10 -10 -3 -10 6 0 15 5 18 10 8 12 4 12 -15 0z"/>
<path d="M1313 748 c1 -20 5 -34 9 -30 4 4 3 21 -1 37 -9 30 -9 30 -8 -7z"/>
<path d="M3630 335 c-7 -8 -9 -15 -4 -16 5 0 -2 -5 -15 -10 -19 -7 -22 -14
-16 -36 3 -15 12 -32 19 -37 26 -23 49 -94 43 -138 -3 -23 -11 -44 -16 -46 -6
-2 -11 -15 -11 -28 l0 -24 185 0 185 0 0 143 c0 139 -1 144 -22 154 -13 6 -38
8 -55 6 -25 -4 -33 -2 -33 10 0 14 -20 27 -41 27 -5 0 -9 -7 -9 -16 0 -11 -5
-14 -17 -10 -11 5 -23 -1 -35 -16 l-18 -23 -6 22 c-5 18 -11 21 -38 17 -21 -4
-27 -3 -18 4 11 7 8 10 -10 14 -12 3 -30 8 -39 12 -9 4 -21 0 -29 -9z"/>
<path d="M3948 323 c7 -3 16 -2 19 1 4 3 -2 6 -13 5 -11 0 -14 -3 -6 -6z"/>
<path d="M2492 39 c-17 -27 -15 -39 8 -39 15 0 20 7 20 24 0 32 -13 39 -28 15z"/>
</g>
</svg>
